<svg width="127" height="128" viewBox="0 0 127 128" fill="none" xmlns="http://www.w3.org/2000/svg">
<g clip-path="url(#clip0_2_144)">
<path d="M0.458008 64.0841C0.458009 98.676 28.7615 126.981 63.3546 126.981C97.9466 126.981 126.251 98.6768 126.251 64.0841C126.251 29.4918 97.9474 1.1875 63.3546 1.1875C28.7623 1.1875 0.458006 29.4922 0.458008 64.0841ZM121.413 64.0841C121.413 96.0168 95.2866 122.142 63.3546 122.142C31.4216 122.142 5.29621 96.016 5.29621 64.0841C5.29621 32.1511 31.4225 6.02569 63.3546 6.02569C95.2874 6.02569 121.413 32.1506 121.413 64.0841Z" fill="white"/>
<path d="M45.9355 64.3258L42.5488 67.7125L63.3531 88.5171L84.1577 67.7125L80.7707 64.3258L65.7727 79.3255V43.0391H60.9332V79.3255L45.9355 64.3258Z" fill="white"/>
</g>
<defs>
<clipPath id="clip0_2_144">
<rect width="126.23" height="126.23" fill="white" transform="translate(0.389893 0.890625)"/>
</clipPath>
</defs>
</svg>
